<svg width="114" height="117" viewBox="0 0 114 117" fill="none" xmlns="http://www.w3.org/2000/svg">
<path d="M49 47.5H48.4815L48.494 47.8444C44.6385 43.0202 39.1927 39.5225 32.9508 38.1456C31.378 34.7575 30.5 30.9813 30.5 27C30.5 12.3645 42.3645 0.5 57 0.5C71.6355 0.5 83.5 12.3645 83.5 27C83.5 30.9813 82.622 34.7575 81.0492 38.1456C74.8041 39.5232 69.3559 43.0238 65.5 47.8519V47.5H65H49ZM48.6281 48.0136C48.6281 48.0136 48.6281 48.0136 48.6281 48.0135L49 48C48.8175 48.0066 48.7017 48.0109 48.6281 48.0136ZM49.5436 49.2467C49.5334 48.9468 49.5248 48.6966 49.518 48.5H64.5004C64.5006 48.6813 64.501 48.9099 64.5015 49.1825C63.6575 50.3807 62.9069 51.6494 62.2601 52.978C60.56 53.3203 58.801 53.5 57 53.5C55.199 53.5 53.44 53.3203 51.7399 52.978C51.1047 51.6731 50.3692 50.426 49.5436 49.2467ZM33.5265 39.3097C39.6739 40.8666 44.9651 44.5721 48.5542 49.5801C48.5567 49.6536 48.5592 49.7295 48.5618 49.8077C48.5829 50.443 48.6085 51.2328 48.637 52.1534C42.097 49.98 36.6887 45.3273 33.5265 39.3097ZM49.6472 52.4666C49.6329 52.0015 49.6193 51.5668 49.6065 51.1653C49.9117 51.663 50.201 52.1716 50.4735 52.6903C50.1963 52.6201 49.9208 52.5455 49.6472 52.4666ZM32.2601 39.022C35.5301 45.7389 41.455 50.9251 48.6696 53.2156C48.683 53.6608 48.6969 54.1295 48.7111 54.6198C48.8283 58.649 48.9689 64.1336 49.0626 69.9553C49.1134 73.1125 49.1503 76.3642 49.1624 79.534C44.4262 86.7414 36.2688 91.5 27 91.5C12.3645 91.5 0.5 79.6355 0.5 65C0.5 50.3645 12.3645 38.5 27 38.5C28.801 38.5 30.56 38.6797 32.2601 39.022ZM50.1541 77.8992C50.1373 75.2427 50.1045 72.5553 50.0624 69.9392C49.9686 64.1119 49.828 58.6228 49.7107 54.5907C49.6999 54.2194 49.6893 53.8605 49.679 53.5148C50.1312 53.6394 50.588 53.7527 51.0492 53.8544C52.622 57.2425 53.5 61.0187 53.5 65C53.5 69.6827 52.2854 74.0817 50.1541 77.8992ZM65.5022 49.5017C69.0902 44.5334 74.3582 40.8585 80.4735 39.3097C77.3351 45.282 71.9843 49.9099 65.5105 52.1038C65.5069 51.2133 65.5045 50.446 65.5029 49.824C65.5026 49.7118 65.5024 49.6043 65.5022 49.5017ZM65.5152 53.1563C72.6461 50.8363 78.4979 45.6815 81.7399 39.022C83.44 38.6797 85.199 38.5 87 38.5C101.636 38.5 113.5 50.3645 113.5 65C113.5 79.6355 101.636 91.5 87 91.5C78.4002 91.5 70.7572 87.4036 65.9158 81.0555C65.8189 77.5164 65.7445 73.8287 65.6874 70.2511C65.5937 64.3768 65.5469 58.8138 65.5234 54.7193C65.5203 54.171 65.5176 53.6491 65.5152 53.1563ZM64.5063 50.9831C64.5078 51.421 64.5096 51.9014 64.5119 52.4203C64.186 52.5164 63.8575 52.6065 63.5265 52.6903C63.8324 52.1081 64.1594 51.5387 64.5063 50.9831ZM62.9508 53.8544C63.4786 53.738 64.0007 53.6064 64.5167 53.4601C64.5187 53.8639 64.5209 54.286 64.5234 54.725C64.5469 58.8217 64.5938 64.3883 64.6876 70.267C64.7366 73.3422 64.7985 76.5068 64.8768 79.5935C62.1105 75.4083 60.5 70.3922 60.5 65C60.5 61.0187 61.378 57.2425 62.9508 53.8544ZM57 54.5C58.6193 54.5 60.2059 54.36 61.7484 54.0916C60.3017 57.4359 59.5 61.1243 59.5 65C59.5 71.147 61.5168 76.8229 64.9249 81.4022C65.1471 89.3928 65.4864 96.6217 66.0056 100.074C66.7672 105.14 68.6695 109.448 70.3766 112.486C71.2308 114.006 72.0381 115.212 72.6332 116.039C72.7554 116.209 72.8688 116.362 72.9717 116.5H42.1513C42.2359 116.403 42.326 116.299 42.4211 116.186C43.067 115.421 43.9409 114.29 44.8615 112.818C46.7021 109.874 48.7335 105.557 49.4953 100.069C50.0403 96.1415 50.1916 88.2718 50.1635 79.8286C52.9083 75.5499 54.5 70.4608 54.5 65C54.5 61.1243 53.6983 57.4359 52.2516 54.0916C53.7941 54.36 55.3807 54.5 57 54.5ZM65.3826 48C65.3825 48 65.3825 48 65.3825 48.0001C65.3096 48 65.1915 48 65 48H65.3826Z" fill="black" stroke="black"/>
</svg>
